<svg width="36" height="36" viewBox="0 0 36 36" fill="none" xmlns="http://www.w3.org/2000/svg">
<path fill-rule="evenodd" clip-rule="evenodd" d="M31 18C31 25.1797 25.1797 31 18 31C10.8203 31 5 25.1797 5 18C5 10.8203 10.8203 5 18 5C25.1797 5 31 10.8203 31 18ZM11.555 11.5551C12.0863 11.0238 12.9477 11.0238 13.479 11.5551L17.9683 16.0444L22.4576 11.555C22.9889 11.0237 23.8503 11.0237 24.3816 11.555C24.9129 12.0863 24.9129 12.9477 24.3816 13.479L19.8923 17.9683L24.3816 22.4577C24.9129 22.989 24.9129 23.8504 24.3816 24.3817C23.8503 24.913 22.9889 24.913 22.4576 24.3817L17.9683 19.8923L13.479 24.3816C12.9477 24.9129 12.0863 24.9129 11.555 24.3816C11.0237 23.8503 11.0237 22.9889 11.555 22.4576L16.0443 17.9683L11.555 13.4791C11.0237 12.9478 11.0237 12.0864 11.555 11.5551Z" fill="#E70505"/>
</svg>
