<svg width="60" height="60" viewBox="0 0 60 60" fill="none" xmlns="http://www.w3.org/2000/svg">
<path fill-rule="evenodd" clip-rule="evenodd" d="M55 30C55 43.8071 43.8071 55 30 55C16.1929 55 5 43.8071 5 30C5 16.1929 16.1929 5 30 5C43.8071 5 55 16.1929 55 30ZM17.6059 17.6059C18.6276 16.5842 20.2841 16.5842 21.3058 17.6059L29.9391 26.2391L38.5724 17.6058C39.5941 16.5841 41.2506 16.5841 42.2724 17.6058C43.2941 18.6275 43.2941 20.2841 42.2724 21.3058L33.639 29.9391L42.2724 38.5724C43.2941 39.5942 43.2941 41.2507 42.2724 42.2724C41.2506 43.2941 39.5941 43.2941 38.5724 42.2724L29.9391 33.6391L21.3058 42.2723C20.2841 43.294 18.6276 43.294 17.6059 42.2723C16.5841 41.2506 16.5841 39.5941 17.6059 38.5723L26.2391 29.9391L17.6059 21.3059C16.5841 20.2842 16.5841 18.6276 17.6059 17.6059Z" fill="#E70505"/>
</svg>
