<svg width="36" height="36" viewBox="0 0 36 36" fill="none" xmlns="http://www.w3.org/2000/svg">
<path d="M9 10C9 9.44772 9.44772 9 10 9H21C21.5523 9 22 9.44772 22 10C22 10.5523 21.5523 11 21 11H10C9.44772 11 9 10.5523 9 10Z" fill="#FFA929"/>
<path d="M9 15C9 14.4477 9.44772 14 10 14H19C19.5523 14 20 14.4477 20 15C20 15.5523 19.5523 16 19 16H10C9.44771 16 9 15.5523 9 15Z" fill="#FFA929"/>
<path d="M9 20C9 19.4477 9.44772 19 10 19H17C17.5523 19 18 19.4477 18 20C18 20.5523 17.5523 21 17 21H10C9.44772 21 9 20.5523 9 20Z" fill="#FFA929"/>
<path d="M9 25C9 24.4477 9.44772 24 10 24H17C17.5523 24 18 24.4477 18 25C18 25.5523 17.5523 26 17 26H10C9.44772 26 9 25.5523 9 25Z" fill="#FFA929"/>
<path d="M25.0359 5H10C7.23858 5 5 7.23858 5 10V26C5 28.7614 7.23858 31 10 31H26C28.7614 31 31 28.7614 31 26V12.6699L29 16.134V26C29 27.6569 27.6569 29 26 29H10C8.34315 29 7 27.6569 7 26V10C7 8.34315 8.34315 7 10 7H23.8812L25.0359 5Z" fill="#FFA929"/>
<path d="M28.5 2.59808L32.8301 5.09808L23.3301 21.5526L19 19.0526L28.5 2.59808Z" fill="#FFA929"/>
<path d="M30 0L34.3301 2.5L33.3301 4.23205L29 1.73205L30 0Z" fill="#FFA929"/>
<path d="M19.1651 23.7667L22.5401 22.2511L18.7901 20.0861L19.1651 23.7667Z" fill="#FFA929"/>
</svg>
